<svg width="11" height="12" viewBox="0 0 11 12" fill="none" xmlns="http://www.w3.org/2000/svg">
<path d="M6.05318 1.77991C5.96722 1.69396 5.85064 1.64567 5.72909 1.64567C5.60753 1.64567 5.49095 1.69396 5.40499 1.77991L2.65499 4.52991C2.476 4.7089 2.476 4.9991 2.65499 5.17809C2.83398 5.35708 3.12419 5.35708 3.30318 5.17809L5.72909 2.75218L8.15499 5.17809C8.33398 5.35708 8.62419 5.35708 8.80318 5.17809C8.98217 4.9991 8.98217 4.7089 8.80318 4.52991L6.05318 1.77991Z" fill="#0E0E0E"/>
<path d="M6.05318 10.2198C5.96722 10.3057 5.85064 10.354 5.72909 10.354C5.60753 10.354 5.49095 10.3057 5.40499 10.2198L2.65499 7.46976C2.476 7.29077 2.476 7.00057 2.65499 6.82158C2.83399 6.64259 3.12419 6.64259 3.30318 6.82158L5.72909 9.24749L8.15499 6.82158C8.33399 6.64259 8.62419 6.64259 8.80318 6.82158C8.98217 7.00057 8.98217 7.29077 8.80318 7.46976L6.05318 10.2198Z" fill="#0E0E0E"/>
</svg>
