<svg width="10" height="10" viewBox="0 0 10 10" fill="none" xmlns="http://www.w3.org/2000/svg">
<path d="M9.28571 0H0.712054C0.319196 0 0 0.323661 0 0.720982V9.27902C0 9.67634 0.319196 10 0.712054 10H9.28571C9.67857 10 10 9.67634 10 9.27902V0.720982C10 0.323661 9.67857 0 9.28571 0ZM3.02232 8.57143H1.54018V3.79911H3.02455V8.57143H3.02232ZM2.28125 3.14732C1.8058 3.14732 1.42188 2.76116 1.42188 2.28795C1.42188 1.81473 1.8058 1.42857 2.28125 1.42857C2.75446 1.42857 3.14062 1.81473 3.14062 2.28795C3.14062 2.76339 2.7567 3.14732 2.28125 3.14732ZM8.57812 8.57143H7.09598V6.25C7.09598 5.69643 7.08482 4.98438 6.32589 4.98438C5.55357 4.98438 5.43527 5.58705 5.43527 6.20982V8.57143H3.95313V3.79911H5.375V4.45089H5.39509C5.59375 4.07589 6.07813 3.6808 6.79911 3.6808C8.29911 3.6808 8.57812 4.66964 8.57812 5.95536V8.57143Z" fill="#1E1A19"/>
</svg>
