<svg width="21" height="20" viewBox="0 0 21 20" fill="none" xmlns="http://www.w3.org/2000/svg">
<path d="M16.3333 15H4.66659C4.20635 15 3.83325 15.3731 3.83325 15.8333C3.83325 16.2936 4.20635 16.6667 4.66659 16.6667H16.3333C16.7935 16.6667 17.1666 16.2936 17.1666 15.8333C17.1666 15.3731 16.7935 15 16.3333 15Z" fill="#0A231D"/>
<path d="M3.83325 14.1665V15.8332C3.83325 16.2934 4.20635 16.6665 4.66659 16.6665C5.12682 16.6665 5.49992 16.2934 5.49992 15.8332V14.1665C5.49992 13.7063 5.12682 13.3332 4.66659 13.3332C4.20635 13.3332 3.83325 13.7063 3.83325 14.1665Z" fill="#0A231D"/>
<path d="M15.5 14.1665V15.8332C15.5 16.2934 15.8731 16.6665 16.3333 16.6665C16.7936 16.6665 17.1667 16.2934 17.1667 15.8332V14.1665C17.1667 13.7063 16.7936 13.3332 16.3333 13.3332C15.8731 13.3332 15.5 13.7063 15.5 14.1665Z" fill="#0A231D"/>
<path d="M10.4999 12.5002C10.3271 12.5015 10.1582 12.4491 10.0165 12.3502L6.68321 10.0002C6.50355 9.87272 6.38166 9.67933 6.34419 9.46227C6.30671 9.24521 6.35669 9.02214 6.48321 8.84183C6.54637 8.75171 6.62675 8.67498 6.71972 8.61609C6.81268 8.55719 6.9164 8.5173 7.02486 8.4987C7.13333 8.48011 7.24441 8.48318 7.35169 8.50775C7.45896 8.53232 7.56031 8.57789 7.64988 8.64183L10.4999 10.6335L13.3332 8.50017C13.51 8.36756 13.7323 8.31062 13.9511 8.34187C14.1699 8.37313 14.3673 8.49002 14.4999 8.66683C14.6325 8.84364 14.6894 9.06589 14.6582 9.28468C14.6269 9.50348 14.51 9.70089 14.3332 9.8335L10.9999 12.3335C10.8556 12.4417 10.6802 12.5002 10.4999 12.5002Z" fill="#0A231D"/>
<path d="M10.5001 10.8333C10.2791 10.8333 10.0671 10.7455 9.91083 10.5893C9.75455 10.433 9.66675 10.221 9.66675 10V3.33333C9.66675 3.11232 9.75455 2.90036 9.91083 2.74408C10.0671 2.5878 10.2791 2.5 10.5001 2.5C10.7211 2.5 10.9331 2.5878 11.0893 2.74408C11.2456 2.90036 11.3334 3.11232 11.3334 3.33333V10C11.3334 10.221 11.2456 10.433 11.0893 10.5893C10.9331 10.7455 10.7211 10.8333 10.5001 10.8333Z" fill="#0A231D"/>
</svg>
